<?xml version="1.0" encoding="UTF-8" standalone="no"?>
<!DOCTYPE svg PUBLIC "-//W3C//DTD SVG 1.1//EN" "http://www.w3.org/Graphics/SVG/1.1/DTD/svg11.dtd">
<svg width="100%" height="100%" viewBox="0 0 600 160" version="1.1" xmlns="http://www.w3.org/2000/svg" xmlns:xlink="http://www.w3.org/1999/xlink" xml:space="preserve" xmlns:serif="http://www.serif.com/" style="fill-rule:evenodd;clip-rule:evenodd;stroke-linejoin:round;stroke-miterlimit:1.41421;">
    <g transform="matrix(0.989921,-3.70733e-34,-3.49128e-34,1.01188,101.759,-22.9786)">
        <path d="M83.174,143.833L83.174,73.731L59.345,73.731L59.345,61.375L121.629,61.375L121.629,73.731L97.8,73.731L97.8,143.833L83.174,143.833Z" style="fill-rule:nonzero;"/>
        <rect x="127.807" y="61.375" width="14.626" height="82.458" style="fill-rule:nonzero;"/>
        <path d="M188.705,145.346C183.494,145.346 178.618,144.421 174.079,142.572C169.54,140.723 165.611,137.991 162.291,134.377C158.971,130.762 156.344,126.307 154.411,121.012C152.477,115.716 151.511,109.665 151.511,102.856C151.511,96.132 152.498,90.101 154.474,84.763C156.449,79.426 159.139,74.908 162.543,71.21C165.947,67.511 169.94,64.695 174.521,62.762C179.102,60.829 183.998,59.862 189.209,59.862C194.421,59.862 199.044,60.913 203.078,63.014C207.113,65.116 210.433,67.553 213.039,70.327L205.222,79.783C203.036,77.598 200.683,75.854 198.161,74.551C195.639,73.248 192.782,72.596 189.587,72.596C186.225,72.596 183.136,73.29 180.32,74.677C177.505,76.064 175.067,78.039 173.008,80.603C170.948,83.166 169.351,86.297 168.217,89.996C167.082,93.694 166.514,97.855 166.514,102.478C166.514,111.892 168.553,119.268 172.629,124.605C176.706,129.943 182.233,132.611 189.209,132.611C192.908,132.611 196.186,131.834 199.044,130.279C201.901,128.724 204.507,126.686 206.861,124.164L214.678,133.368C211.316,137.234 207.47,140.197 203.141,142.257C198.812,144.316 194,145.346 188.705,145.346Z" style="fill-rule:nonzero;"/>
        <path d="M220.856,143.833L220.856,61.375L235.481,61.375L235.481,98.821L235.86,98.821L265.237,61.375L281.501,61.375L256.159,93.526L285.788,143.833L269.65,143.833L247.333,105L235.481,119.751L235.481,143.833L220.856,143.833Z" style="fill-rule:nonzero;"/>
        <path d="M289.444,143.833L289.444,61.123L337.103,61.123L337.103,69.949L299.909,69.949L299.909,95.922L331.304,95.922L331.304,104.873L299.909,104.873L299.909,134.881L338.364,134.881L338.364,143.833L289.444,143.833Z" style="fill-opacity:0.8;fill-rule:nonzero;"/>
        <path d="M365.472,143.833L365.472,69.949L340.508,69.949L340.508,61.123L401.027,61.123L401.027,69.949L376.063,69.949L376.063,143.833L365.472,143.833Z" style="fill-opacity:0.8;fill-rule:nonzero;"/>
        <path d="M408.34,143.833L408.34,61.123L418.804,61.123L418.804,95.796L457.259,95.796L457.259,61.123L467.85,61.123L467.85,143.833L457.259,143.833L457.259,104.873L418.804,104.873L418.804,143.833L408.34,143.833Z" style="fill-opacity:0.8;fill-rule:nonzero;"/>
    </g>
    <g transform="matrix(3.68916,0,0,3.84352,-4438.79,-1588.27)">
        <g transform="matrix(0.213919,0,0,0.213919,967.102,320.602)">
            <path d="M1218.69,481.598L1222.37,484.688L1239.67,464.125L1239.48,463.964L1239.4,463.9L1284.95,463.9C1289.68,463.946 1293.45,467.737 1293.45,472.401L1293.45,597.632C1293.45,602.268 1289.73,606.042 1284.95,606.133L1160.27,606.133C1155.58,606.133 1151.77,602.324 1151.77,597.632L1151.77,568.115L1152,568.309L1169.3,547.745L1164.81,543.963L1173.38,534.046L1177.75,537.708L1191.47,521.881L1235.66,567.611C1239.64,571.169 1243.53,574.083 1247.32,576.351C1251.11,578.62 1254.78,580.123 1258.32,580.859C1258.97,580.994 1259.62,581.1 1260.25,581.176C1261.09,581.276 1261.91,581.326 1262.73,581.327L1262.81,581.327C1264.3,581.322 1265.76,581.151 1267.19,580.814L1267.26,580.795C1267.67,580.697 1268.08,580.585 1268.48,580.46C1269.88,580.024 1271.25,579.384 1272.58,578.541C1274.29,577.448 1275.95,576.013 1277.54,574.236C1279.14,572.439 1280.47,570.559 1281.52,568.595C1281.71,568.239 1281.89,567.881 1282.07,567.519C1283.02,565.511 1283.79,563.601 1284.38,561.789C1284.48,561.475 1284.58,561.165 1284.67,560.857L1270.02,551.711C1269.8,552.961 1269.4,554.213 1268.81,555.468C1268.78,555.543 1268.74,555.617 1268.7,555.691C1268.14,556.854 1267.46,557.883 1266.66,558.777C1266.59,558.848 1266.53,558.918 1266.47,558.986C1261.96,563.789 1255.49,562.42 1247.05,554.877L1201.92,508.93L1214.55,494.56L1210.39,491.209L1218.69,481.598Z" style="fill:rgb(72,151,216);"/>
        </g>
        <g transform="matrix(-0.139863,0.161864,-0.0879153,-0.0759658,1423.72,270.139)">
            <path d="M1224.12,412.199L1224.21,424.517L1236.51,424.221L1178.5,516.509C1174.97,522.123 1169.64,521.444 1166.51,514.899L1125.21,426.894L1136.25,426.629L1141.8,426.496L1141.7,412.199L1154.4,412.199L1154.68,426.784L1173.08,427.361L1172.28,480.264L1186.42,480.707L1189.57,425.837L1211.12,424.888L1211.02,412.199L1224.12,412.199Z" style="fill:rgb(72,151,216);"/>
        </g>
    </g>
    <g transform="matrix(0.789182,0,0,0.822203,-870.997,-356.032)">
        <path d="M1218.69,481.598L1222.37,484.688L1239.67,464.125L1239.48,463.964L1239.4,463.9L1284.95,463.9C1289.68,463.946 1293.45,467.737 1293.45,472.401L1293.45,597.632C1293.45,602.268 1289.73,606.042 1284.95,606.133L1160.27,606.133C1155.58,606.133 1151.77,602.324 1151.77,597.632L1151.77,568.115L1152,568.309L1169.3,547.745L1164.81,543.963L1173.38,534.046L1177.75,537.708L1191.47,521.881L1235.66,567.611C1239.64,571.169 1243.53,574.083 1247.32,576.351C1251.11,578.62 1254.78,580.123 1258.32,580.859C1258.97,580.994 1259.62,581.1 1260.25,581.176C1261.09,581.276 1261.91,581.326 1262.73,581.327L1262.81,581.327C1264.3,581.322 1265.76,581.151 1267.19,580.814L1267.26,580.795C1267.67,580.697 1268.08,580.585 1268.48,580.46C1269.88,580.024 1271.25,579.384 1272.58,578.541C1274.29,577.448 1275.95,576.013 1277.54,574.236C1279.14,572.439 1280.47,570.559 1281.52,568.595C1281.71,568.239 1281.89,567.881 1282.07,567.519C1283.02,565.511 1283.79,563.601 1284.38,561.789C1284.48,561.475 1284.58,561.165 1284.67,560.857L1270.02,551.711C1269.8,552.961 1269.4,554.213 1268.81,555.468C1268.78,555.543 1268.74,555.617 1268.7,555.691C1268.14,556.854 1267.46,557.883 1266.66,558.777C1266.59,558.848 1266.53,558.918 1266.47,558.986C1261.96,563.789 1255.49,562.42 1247.05,554.877L1201.92,508.93L1214.55,494.56L1210.39,491.209L1218.69,481.598Z" style="fill-opacity:0.6;"/>
    </g>
</svg>
