<?xml version="1.0" encoding="UTF-8" standalone="no"?><!DOCTYPE svg PUBLIC "-//W3C//DTD SVG 1.1//EN" "http://www.w3.org/Graphics/SVG/1.1/DTD/svg11.dtd"><svg width="100%" height="100%" viewBox="0 0 300 300" version="1.1" xmlns="http://www.w3.org/2000/svg" xmlns:xlink="http://www.w3.org/1999/xlink" xml:space="preserve" xmlns:serif="http://www.serif.com/" style="fill-rule:evenodd;clip-rule:evenodd;stroke-linejoin:round;stroke-miterlimit:1.41421;"><path d="M142.081,37.328l7.434,6.517l35.034,-43.372l-0.386,-0.338l-0.154,-0.135l92.199,0c9.59,0.096 17.21,8.093 17.21,17.93l0,264.14c0,9.778 -7.529,17.739 -17.21,17.93l-252.416,0c-9.498,0 -17.21,-8.034 -17.21,-17.93l0,-62.258l0.466,0.408l35.034,-43.372l-9.099,-7.977l17.349,-20.919l8.858,7.726l27.773,-33.385l89.474,96.456c8.055,7.505 15.919,13.65 23.589,18.435c7.671,4.786 15.099,7.955 22.282,9.508c1.314,0.285 2.617,0.507 3.909,0.669c1.688,0.211 3.357,0.317 5.007,0.318l0.162,0c3.019,-0.01 5.976,-0.371 8.869,-1.083l0.155,-0.038c0.826,-0.207 1.647,-0.443 2.463,-0.707c2.842,-0.921 5.605,-2.271 8.289,-4.049c3.481,-2.306 6.83,-5.332 10.046,-9.08c3.253,-3.79 5.943,-7.756 8.07,-11.898c0.385,-0.75 0.752,-1.507 1.1,-2.269c1.936,-4.235 3.498,-8.263 4.684,-12.086c0.206,-0.662 0.4,-1.317 0.583,-1.966l-29.65,-19.291c-0.451,2.636 -1.268,5.278 -2.453,7.925c-0.07,0.157 -0.142,0.314 -0.214,0.469c-1.144,2.453 -2.526,4.623 -4.146,6.511c-0.128,0.149 -0.257,0.295 -0.387,0.439c-9.127,10.132 -22.228,7.243 -39.304,-8.666l-91.371,-96.911l25.571,-30.311l-8.423,-7.067l16.813,-20.273Z" style="fill:#4897d8;"/><path d="M32.983,168.871l-10.364,-9.087l-16.037,19.853l0,-161.707c0,-9.837 7.62,-17.834 17.21,-17.93l127.892,0l-14.39,17.815l-7.242,8.966l12.029,10.547l-16.813,20.273l-12.499,-10.486l-24.843,28.942l-42.957,-40.903l-19.079,22.228l41.488,46.121l-27.746,35.117l10.7,9.332l-17.349,20.919Z" style="fill:#4897d8;"/><path d="M142.081,37.328l7.434,6.517l35.034,-43.372l-0.386,-0.338l-0.154,-0.135l92.199,0c9.59,0.096 17.21,8.093 17.21,17.93l0,264.14c0,9.778 -7.529,17.739 -17.21,17.93l-252.416,0c-9.498,0 -17.21,-8.034 -17.21,-17.93l0,-62.258l0.466,0.408l35.034,-43.372l-9.099,-7.977l17.349,-20.919l8.858,7.726l27.773,-33.385l89.474,96.456c8.055,7.505 15.919,13.65 23.589,18.435c7.671,4.786 15.099,7.955 22.282,9.508c1.314,0.285 2.617,0.507 3.909,0.669c1.688,0.211 3.357,0.317 5.007,0.318l0.162,0c3.019,-0.01 5.976,-0.371 8.869,-1.083l0.155,-0.038c0.826,-0.207 1.647,-0.443 2.463,-0.707c2.842,-0.921 5.605,-2.271 8.289,-4.049c3.481,-2.306 6.83,-5.332 10.046,-9.08c3.253,-3.79 5.943,-7.756 8.07,-11.898c0.385,-0.75 0.752,-1.507 1.1,-2.269c1.936,-4.235 3.498,-8.263 4.684,-12.086c0.206,-0.662 0.4,-1.317 0.583,-1.966l-29.65,-19.291c-0.451,2.636 -1.268,5.278 -2.453,7.925c-0.07,0.157 -0.142,0.314 -0.214,0.469c-1.144,2.453 -2.526,4.623 -4.146,6.511c-0.128,0.149 -0.257,0.295 -0.387,0.439c-9.127,10.132 -22.228,7.243 -39.304,-8.666l-91.371,-96.911l25.571,-30.311l-8.423,-7.067l16.813,-20.273Z" style="fill-opacity:0.6;"/></svg>